<?xml version="1.0" encoding="UTF-8"?>
<svg version="1.1" xmlns="http://www.w3.org/2000/svg" width="532" height="541">
<path d="M0 0 C175.56 0 351.12 0 532 0 C532 178.53 532 357.06 532 541 C356.44 541 180.88 541 0 541 C0 362.47 0 183.94 0 0 Z " fill="#FDFDFD" transform="translate(0,0)"/>
<path d="M0 0 C0.79921875 0.00902344 1.5984375 0.01804688 2.421875 0.02734375 C3.02515625 0.03894531 3.6284375 0.05054688 4.25 0.0625 C9.0605802 13.34030603 13.8241025 26.63073296 18.421875 39.98388672 C20.65496354 46.44017966 22.99601195 52.84649989 25.52416992 59.19360352 C26.7870349 62.44242909 27.25 64.4953158 27.25 68.0625 C27.91 68.0625 28.57 68.0625 29.25 68.0625 C29.14558594 67.18851563 29.14558594 67.18851563 29.0390625 66.296875 C28.51698812 58.39117728 30.93855081 52.62916876 35.25 46.0625 C37.37459438 43.64321916 39.56536321 41.82545273 42.25 40.0625 C43.11625 39.44375 43.9825 38.825 44.875 38.1875 C48.50271069 36.9782631 51.1542144 36.94962786 54.9609375 36.9921875 C56.1370459 37.00233887 57.3131543 37.01249023 58.52490234 37.02294922 C59.87382568 37.04252686 59.87382568 37.04252686 61.25 37.0625 C61.72308594 37.95332275 62.19617188 38.84414551 62.68359375 39.76196289 C64.480174 43.1448455 66.27692906 46.52763524 68.07373047 49.91040039 C68.84363311 51.3599203 69.61349162 52.80946365 70.38330078 54.2590332 C75.66204918 64.19895094 80.95032133 74.1337253 86.25 84.0625 C86.58 84.0625 86.91 84.0625 87.25 84.0625 C87.36214844 83.10150391 87.36214844 83.10150391 87.4765625 82.12109375 C88.46903012 75.59221362 90.27403681 71.48407599 95.25 67.0625 C98.70844824 65.33327588 102.46165265 65.71113557 106.25 66.0625 C110.91153039 67.73361467 113.9112566 69.65486821 116.25 74.0625 C117.77401747 85.39737997 116.82369824 104.80689525 111.25 115.0625 C110.26 115.3925 109.27 115.7225 108.25 116.0625 C107.57663607 117.39246362 106.91080807 118.72625342 106.25 120.0625 C104.41015625 121.765625 104.41015625 121.765625 102.3125 123.3125 C101.62285156 123.83328125 100.93320312 124.3540625 100.22265625 124.890625 C98.25 126.0625 98.25 126.0625 95.25 126.0625 C94.92 127.0525 94.59 128.0425 94.25 129.0625 C90.29 129.0625 86.33 129.0625 82.25 129.0625 C81.858125 128.25554687 81.46625 127.44859375 81.0625 126.6171875 C77.56554793 119.49604802 73.94361538 112.45072156 70.19140625 105.4609375 C69.83364105 104.79395844 69.47587585 104.12697937 69.10726929 103.43978882 C67.28586006 100.04719493 65.45808219 96.65819117 63.62304688 93.27294922 C62.93738306 91.99973745 62.25183146 90.72646524 61.56640625 89.453125 C60.95224854 88.31907227 60.33809082 87.18501953 59.70532227 86.01660156 C58.52856721 83.62795265 57.72507149 81.6601386 57.25 79.0625 C56.59 79.0625 55.93 79.0625 55.25 79.0625 C55.27066528 79.96150024 55.27066528 79.96150024 55.29174805 80.87866211 C55.37339032 87.22404667 54.92580266 93.34181862 54.0625 99.625 C53.96130859 100.50607422 53.86011719 101.38714844 53.75585938 102.29492188 C52.48917807 111.57250654 48.72658885 118.7111214 41.41796875 124.62109375 C34.93069111 128.93425672 28.82240244 129.21891658 21.25 129.0625 C4.38537118 81.46861354 4.38537118 81.46861354 -1.75 63.0625 C-3.01353755 71.23279522 -4.03234674 79.40464935 -4.8984375 87.625 C-5.10134341 89.51174232 -5.30447135 91.39846078 -5.5078125 93.28515625 C-5.82073908 96.19181969 -6.12863964 99.09860307 -6.421875 102.00732422 C-6.71137457 104.86089485 -7.02178338 107.71155212 -7.3359375 110.5625 C-7.41838715 111.42818604 -7.50083679 112.29387207 -7.58578491 113.18579102 C-8.29973443 119.42116068 -10.03190041 123.66417683 -14.875 127.9375 C-20.05741083 129.96539989 -25.44258917 129.96539989 -30.625 127.9375 C-34.02553557 124.93702744 -36.37551561 122.45920011 -37.1015625 117.8125 C-37.35511198 109.88331631 -36.04295306 102.01360774 -34.95874023 94.17993164 C-34.0363534 87.48283447 -33.31252788 80.79886251 -32.75 74.0625 C-31.94054398 64.49940442 -30.76203344 55.01247883 -29.46875 45.50390625 C-28.89994336 41.2978478 -28.41964538 37.08984509 -27.98193359 32.8684082 C-26.72579373 21.05672672 -24.77256587 13.33871391 -15.75 5.0625 C-10.75822024 1.40924183 -6.13281014 -0.09018838 0 0 Z " fill="#3F48B3" transform="translate(209.75,161.9375)"/>
<path d="M0 0 C0.79921875 0.00902344 1.5984375 0.01804688 2.421875 0.02734375 C3.02515625 0.03894531 3.6284375 0.05054688 4.25 0.0625 C4.91 2.3725 5.57 4.6825 6.25 7.0625 C5.59 7.0625 4.93 7.0625 4.25 7.0625 C2.12048992 16.05897651 1.43883202 25.09129751 0.67523193 34.28057861 C-0.82948127 52.28421135 -2.73222371 70.21029868 -4.99926758 88.13305664 C-5.1492495 89.31983757 -5.1492495 89.31983757 -5.30226135 90.53059387 C-5.49966674 92.08200997 -5.69951319 93.63311768 -5.90196228 95.18388367 C-6.41059889 99.12737979 -6.85419053 103.06522368 -7.20214844 107.02636719 C-7.27774994 107.83806366 -7.35335144 108.64976013 -7.4312439 109.48605347 C-7.57130157 111.02153195 -7.69799111 112.55831701 -7.80825806 114.09622192 C-8.36607115 120.05719619 -10.39547122 123.98497461 -14.875 127.9375 C-20.05741083 129.96539989 -25.44258917 129.96539989 -30.625 127.9375 C-34.02553557 124.93702744 -36.37551561 122.45920011 -37.1015625 117.8125 C-37.35511198 109.88331631 -36.04295306 102.01360774 -34.95874023 94.17993164 C-34.0363534 87.48283447 -33.31252788 80.79886251 -32.75 74.0625 C-31.94054398 64.49940442 -30.76203344 55.01247883 -29.46875 45.50390625 C-28.89994336 41.2978478 -28.41964538 37.08984509 -27.98193359 32.8684082 C-26.72579373 21.05672672 -24.77256587 13.33871391 -15.75 5.0625 C-10.75822024 1.40924183 -6.13281014 -0.09018838 0 0 Z " fill="#B071CE" transform="translate(209.75,161.9375)"/>
<path d="M0 0 C4.66153039 1.67111467 7.6612566 3.59236821 10 8 C11.52401747 19.33487997 10.57369824 38.74439525 5 49 C3.515 49.495 3.515 49.495 2 50 C1.32663607 51.32996362 0.66080807 52.66375342 0 54 C-1.83984375 55.703125 -1.83984375 55.703125 -3.9375 57.25 C-4.97197266 58.03117187 -4.97197266 58.03117187 -6.02734375 58.828125 C-8 60 -8 60 -11 60 C-11.33 60.99 -11.66 61.98 -12 63 C-15.96 63 -19.92 63 -24 63 C-23.87882812 61.95134766 -23.75765625 60.90269531 -23.6328125 59.82226562 C-23.18099097 55.90155475 -22.73514018 51.98018333 -22.29101562 48.05859375 C-22.09861341 46.36700381 -21.90462992 44.67559289 -21.70898438 42.984375 C-21.4267438 40.54213001 -21.15034846 38.09928049 -20.875 35.65625 C-20.78750488 34.91008423 -20.70000977 34.16391846 -20.60986328 33.3951416 C-20.20415635 29.74684037 -19.96371432 26.19429152 -20.0078125 22.52148438 C-20 19 -20 19 -19 18 C-18.75525023 16.46073036 -18.52932911 14.91845023 -18.3125 13.375 C-17.29361065 7.95388641 -15.09628136 4.63990219 -11 1 C-7.54155176 -0.72922412 -3.78834735 -0.35136443 0 0 Z " fill="#B36ECD" transform="translate(316,228)"/>
<path d="M0 0 C3.23499389 2.94778913 5.16135513 5.80516306 7.13671875 9.69921875 C7.710271 10.8178833 8.28382324 11.93654785 8.87475586 13.08911133 C9.47973786 14.2882042 10.08397161 15.48767484 10.6875 16.6875 C11.92970923 19.14454408 13.17492098 21.6000483 14.421875 24.0546875 C14.72778061 24.65861832 15.03368622 25.26254913 15.34886169 25.88478088 C17.11458407 29.34704252 18.96568828 32.73081238 20.953125 36.0703125 C21.37891846 36.80161377 21.80471191 37.53291504 22.2434082 38.28637695 C23.00119085 39.57217499 23.78371951 40.84395241 24.59838867 42.09448242 C28.25905948 48.42572138 26.82399099 55.01073431 26 62 C25.7484904 64.49737494 25.49718785 66.99477075 25.24609375 69.4921875 C24.97913624 71.95340552 24.70960411 74.41434565 24.4375 76.875 C24.29892578 78.14730469 24.16035156 79.41960937 24.01757812 80.73046875 C23.68068716 83.82057206 23.3414686 86.91039978 23 90 C20.48131102 86.84035433 18.5935499 83.54614906 16.70703125 79.9765625 C16.39957474 79.39787918 16.09211823 78.81919586 15.77534485 78.22297668 C15.12157589 76.9921461 14.46922013 75.76056398 13.81817627 74.52828979 C12.13997696 71.3522184 10.45176216 68.18150036 8.76171875 65.01171875 C8.43324951 64.39549149 8.10478027 63.77926422 7.76635742 63.1443634 C4.738456 57.48007814 1.5776396 51.90572963 -1.6796875 46.37109375 C-6.30129787 38.07133785 -3.61183428 27.2596329 -2.5625 18.25 C-2.42779297 17.04472656 -2.29308594 15.83945313 -2.15429688 14.59765625 C-1.59539039 9.68473196 -1.03364461 4.83890553 0 0 Z " fill="#4544C3" transform="translate(270,200)"/>
<path d="M0 0 C0.83466797 -0.02900391 1.66933594 -0.05800781 2.52929688 -0.08789062 C8.41689278 -0.1475467 13.09673031 0.80318264 17.9375 4.3125 C19.9375 7.3125 19.9375 7.3125 19.8125 10.25 C18.83212199 13.68132304 17.63687452 15.04850847 14.9375 17.3125 C15.55625 18.034375 16.175 18.75625 16.8125 19.5 C18.77416353 22.09631938 19.89066 24.25921666 20.9375 27.3125 C21.5975 27.3125 22.2575 27.3125 22.9375 27.3125 C23.06133057 26.58635498 23.18516113 25.86020996 23.31274414 25.11206055 C23.92564657 22.36561578 24.78227904 20.08125169 25.93359375 17.51953125 C26.32740234 16.64232422 26.72121094 15.76511719 27.12695312 14.86132812 C27.53880859 13.95833984 27.95066406 13.05535156 28.375 12.125 C28.78298828 11.21041016 29.19097656 10.29582031 29.61132812 9.35351562 C32.68032977 2.56967023 32.68032977 2.56967023 34.9375 0.3125 C37.3203125 0.1171875 37.3203125 0.1171875 40.0625 0.1875 C40.97257812 0.20554687 41.88265625 0.22359375 42.8203125 0.2421875 C43.51898438 0.26539063 44.21765625 0.28859375 44.9375 0.3125 C56.9375 23.69002161 56.9375 23.69002161 56.9375 29.3125 C53.6375 29.3125 50.3375 29.3125 46.9375 29.3125 C46.9375 27.6625 46.9375 26.0125 46.9375 24.3125 C42.3175 24.6425 37.6975 24.9725 32.9375 25.3125 C32.6075 26.6325 32.2775 27.9525 31.9375 29.3125 C14.57575387 30.70487766 14.57575387 30.70487766 10.62109375 27.34375 C9.25 24.875 9.25 24.875 8.13671875 22.3828125 C7.12028961 20.13138037 7.12028961 20.13138037 4.83203125 19.4921875 C2.34200123 19.17932459 2.34200123 19.17932459 -1.0625 19.3125 C-1.0625 22.6125 -1.0625 25.9125 -1.0625 29.3125 C-7.21484375 29.41015625 -7.21484375 29.41015625 -9.0625 29.3125 C-10.86529191 27.50970809 -10.19286605 24.77202299 -10.1953125 22.34375 C-10.19660156 21.13332031 -10.19789063 19.92289062 -10.19921875 18.67578125 C-10.19535156 17.40089844 -10.19148437 16.12601562 -10.1875 14.8125 C-10.19136719 13.53761719 -10.19523438 12.26273437 -10.19921875 10.94921875 C-10.19792969 9.73878906 -10.19664062 8.52835937 -10.1953125 7.28125 C-10.19418457 6.16169922 -10.19305664 5.04214844 -10.19189453 3.88867188 C-9.90918397 -1.73993545 -4.44250021 0.04984106 0 0 Z " fill="#534A19" transform="translate(155.0625,316.6875)"/>
<path d="M0 0 C-0.73233619 5.63047653 -1.46624511 11.26074117 -2.203125 16.890625 C-2.67857504 20.52522649 -3.14893555 24.16034302 -3.609375 27.796875 C-3.69783691 28.48579834 -3.78629883 29.17472168 -3.87744141 29.88452148 C-4.11056507 31.70008118 -4.34054275 33.51604404 -4.5703125 35.33203125 C-5 38 -5 38 -6 40 C-6.804375 40.12375 -7.60875 40.2475 -8.4375 40.375 C-11.15983399 40.72567164 -11.15983399 40.72567164 -12.3125 43.0625 C-12.539375 43.701875 -12.76625 44.34125 -13 45 C-14.65 44.67 -16.3 44.34 -18 44 C-18.33 45.65 -18.66 47.3 -19 49 C-20.98 48.67 -22.96 48.34 -25 48 C-25.33 49.98 -25.66 51.96 -26 54 C-26.556875 53.319375 -27.11375 52.63875 -27.6875 51.9375 C-28.450625 51.298125 -29.21375 50.65875 -30 50 C-32.475 50.495 -32.475 50.495 -35 51 C-34.67 44.4 -34.34 37.8 -34 31 C-33.34 31 -32.68 31 -32 31 C-32.06960937 30.41734375 -32.13921875 29.8346875 -32.2109375 29.234375 C-32.73301188 21.32867728 -30.31144919 15.56666876 -26 9 C-23.87540562 6.58071916 -21.68463679 4.76295273 -19 3 C-18.13375 2.38125 -17.2675 1.7625 -16.375 1.125 C-11.0084813 -0.66383957 -5.60533367 -0.22454601 0 0 Z " fill="#8D9BE1" transform="translate(271,199)"/>
<path d="M0 0 C1.76234073 5.47026001 0.41156296 11.095129 -0.25 16.6875 C-0.43369141 18.40743164 -0.43369141 18.40743164 -0.62109375 20.16210938 C-1.98656111 31.97137414 -4.43185401 41.88707117 -14.01953125 49.67578125 C-20.36526766 53.91878843 -26.596498 54.16212048 -34 54 C-33.54687664 49.60361377 -33.0865177 45.20801231 -32.625 40.8125 C-32.49867188 39.58595703 -32.37234375 38.35941406 -32.2421875 37.09570312 C-31.85152161 33.3941438 -31.42762644 29.69745191 -31 26 C-30.8772168 24.76040527 -30.75443359 23.52081055 -30.62792969 22.24365234 C-30.49032227 21.07398926 -30.35271484 19.90432617 -30.2109375 18.69921875 C-30.0979834 17.64951904 -29.9850293 16.59981934 -29.86865234 15.51831055 C-29 13 -29 13 -26.42431641 11.64379883 C-25.22427979 11.32511841 -25.22427979 11.32511841 -24 11 C-23.01 12.32 -22.02 13.64 -21 15 C-20.34 13.35 -19.68 11.7 -19 10 C-16.03 10.495 -16.03 10.495 -13 11 C-12.67 9.35 -12.34 7.7 -12 6 C-10.0625 5.4375 -10.0625 5.4375 -8 5 C-7.67 5.33 -7.34 5.66 -7 6 C-6.34 4.68 -5.68 3.36 -5 2 C-3.35 2 -1.7 2 0 2 C0 1.34 0 0.68 0 0 Z " fill="#DD39B6" transform="translate(265,237)"/>
<path d="M0 0 C3.68205193 3.56787978 5.90484959 6.57274381 6.25 11.75 C6.18334393 15.83823904 5.2823059 18.53719106 3 22 C-1.77896939 26.31272847 -4.41490385 27.16961136 -10.8125 27.25 C-12.64748047 27.28867187 -12.64748047 27.28867187 -14.51953125 27.328125 C-19.43267587 26.86493291 -22.85337943 24.77594469 -26 21 C-27.8050783 15.58476509 -28.46943906 8.95921638 -25.87109375 3.7265625 C-19.19106519 -4.54062689 -8.90575416 -5.04099292 0 0 Z " fill="#534919" transform="translate(276,355)"/>
<path d="M0 0 C3.50625 -0.0825 7.0125 -0.165 10.625 -0.25 C11.71893066 -0.28641602 12.81286133 -0.32283203 13.93994141 -0.36035156 C19.97600832 -0.42900615 23.39742573 -0.00622744 28 4 C29 5 29 5 29.3125 8.3125 C29 12 29 12 27 14.4375 C26.01 15.2109375 26.01 15.2109375 25 16 C25.433125 16.61488281 25.86625 17.22976563 26.3125 17.86328125 C26.869375 18.67152344 27.42625 19.47976563 28 20.3125 C28.556875 21.11300781 29.11375 21.91351563 29.6875 22.73828125 C31 25 31 25 31 28 C27.84444591 28.56799974 25.12960846 28.78240212 22 28 C20.13691691 25.82640306 18.87729104 23.56660585 17.484375 21.0703125 C16.18756097 18.88363634 16.18756097 18.88363634 14.078125 18.1796875 C11.93597018 17.86683575 11.93597018 17.86683575 9 18 C9.01160156 18.63808594 9.02320313 19.27617187 9.03515625 19.93359375 C9.04417969 20.75988281 9.05320313 21.58617187 9.0625 22.4375 C9.07410156 23.26121094 9.08570313 24.08492188 9.09765625 24.93359375 C9 27 9 27 8 28 C5.36 28 2.72 28 0 28 C0 18.76 0 9.52 0 0 Z " fill="#4D4411" transform="translate(170,354)"/>
<path d="M0 0 C10 0 10 0 13.1640625 3.0625 C14.019567 4.35233755 14.8396907 5.66626159 15.625 7 C16.05683594 7.66773438 16.48867188 8.33546875 16.93359375 9.0234375 C17.98724683 10.66245341 18.99814448 12.32881973 20 14 C20.33 9.38 20.66 4.76 21 0 C23.97 0 26.94 0 30 0 C30.02886338 4.47915328 30.04675187 8.95828291 30.0625 13.4375 C30.07087891 14.71689453 30.07925781 15.99628906 30.08789062 17.31445312 C30.09272461 19.13686523 30.09272461 19.13686523 30.09765625 20.99609375 C30.10551147 22.68496704 30.10551147 22.68496704 30.11352539 24.40795898 C30 27 30 27 29 28 C25.6990665 29.13540082 23.28737807 29.20472164 20 28 C15.90879742 23.98139704 12.97158795 18.86372641 10 14 C9.93941406 14.92683594 9.87882812 15.85367187 9.81640625 16.80859375 C9.73261719 18.00613281 9.64882813 19.20367187 9.5625 20.4375 C9.48128906 21.63246094 9.40007812 22.82742188 9.31640625 24.05859375 C9 27 9 27 8 28 C5.36 28 2.72 28 0 28 C0 18.76 0 9.52 0 0 Z " fill="#4D4411" transform="translate(287,354)"/>
<path d="M0 0 C1.0625 1.5625 1.0625 1.5625 1.0625 5.5625 C-4.9921875 5.7578125 -4.9921875 5.7578125 -6.9375 5.5625 C-7.5975 4.9025 -8.2575 4.2425 -8.9375 3.5625 C-12.52093976 3.39572718 -12.52093976 3.39572718 -15.9375 3.5625 C-16.2675 4.5525 -16.5975 5.5425 -16.9375 6.5625 C-16.35742188 6.61148437 -15.77734375 6.66046875 -15.1796875 6.7109375 C-2.05775395 7.96683213 -2.05775395 7.96683213 2.0625 12.5625 C2.52276854 16.17889566 2.54353331 18.57370931 0.9375 21.875 C-3.98408988 26.3044309 -10.60817814 25.97302801 -16.859375 25.89453125 C-21.48609666 25.39545594 -23.67885311 23.82114689 -26.9375 20.5625 C-26.97813832 18.89632885 -26.980221 17.22861905 -26.9375 15.5625 C-20.8828125 15.3671875 -20.8828125 15.3671875 -18.9375 15.5625 C-18.2775 16.2225 -17.6175 16.8825 -16.9375 17.5625 C-14.72677023 17.80503813 -14.72677023 17.80503813 -12.3125 17.6875 C-11.49523437 17.66945313 -10.67796875 17.65140625 -9.8359375 17.6328125 C-8.89621094 17.59800781 -8.89621094 17.59800781 -7.9375 17.5625 C-7.9375 16.9025 -7.9375 16.2425 -7.9375 15.5625 C-9.36642578 15.32466797 -9.36642578 15.32466797 -10.82421875 15.08203125 C-12.07847656 14.84871094 -13.33273437 14.61539062 -14.625 14.375 C-16.48705078 14.04435547 -16.48705078 14.04435547 -18.38671875 13.70703125 C-22.48014352 12.3875885 -24.2957627 10.92379622 -26.9375 7.5625 C-27.0625 4 -27.0625 4 -25.9375 0.5625 C-18.65391225 -6.91794148 -7.99530232 -5.9319985 0 0 Z " fill="#504715" transform="translate(274.9375,320.4375)"/>
<path d="M0 0 C1.83498047 -0.03867187 1.83498047 -0.03867187 3.70703125 -0.078125 C8.39625609 0.3639568 10.90703183 1.96953183 14.1875 5.25 C14.1875 6.57 14.1875 7.89 14.1875 9.25 C8.1328125 9.4453125 8.1328125 9.4453125 6.1875 9.25 C5.5275 8.59 4.8675 7.93 4.1875 7.25 C0.60406024 7.08322718 0.60406024 7.08322718 -2.8125 7.25 C-3.1425 8.24 -3.4725 9.23 -3.8125 10.25 C-2.61753906 10.41435547 -2.61753906 10.41435547 -1.3984375 10.58203125 C11.44071888 12.50321888 11.44071888 12.50321888 15.1875 16.25 C15.69531969 21.41283349 15.69531969 21.41283349 15.1875 24.25 C11.30822335 28.23136288 8.40685759 29.39708299 2.92382812 29.484375 C1.9096582 29.49210937 1.9096582 29.49210937 0.875 29.5 C-0.44113281 29.52578125 -1.75726563 29.5515625 -3.11328125 29.578125 C-7.95263776 29.14886846 -10.4321481 27.6303519 -13.8125 24.25 C-13.9375 21.625 -13.9375 21.625 -13.8125 19.25 C-8.41497235 18.98454782 -8.41497235 18.98454782 -5.8125 19.25 C-4.79230427 20.2293879 -3.79100195 21.22895449 -2.8125 22.25 C0.72963985 22.75007794 0.72963985 22.75007794 4.1875 22.25 C4.8475 21.26 5.5075 20.27 6.1875 19.25 C5.39085937 19.14042969 4.59421875 19.03085937 3.7734375 18.91796875 C-7.13173305 17.28617316 -7.13173305 17.28617316 -11.8125 14.25 C-13.35836876 11.15826248 -13.10609521 8.65570448 -12.8125 5.25 C-8.96789532 0.3801674 -6.0237609 0.07569124 0 0 Z " fill="#544B1A" transform="translate(229.8125,352.75)"/>
<path d="M0 0 C2.05078125 0.03255208 4.1015625 0.06510417 6.15234375 0.09765625 C6.15234375 3.39765625 6.15234375 6.69765625 6.15234375 10.09765625 C8.87504243 9.67056626 10.74806694 9.3630651 13.15234375 8.09765625 C14.46928927 6.18039398 14.46928927 6.18039398 15.52734375 3.97265625 C16.6875 1.80859375 16.6875 1.80859375 18.15234375 0.09765625 C21.25284885 -0.60533475 24.02854943 -0.3923507 27.15234375 0.09765625 C25.57617566 5.61424456 23.23002951 10.01997049 19.15234375 14.09765625 C20.26609375 15.08765625 20.26609375 15.08765625 21.40234375 16.09765625 C24.57712004 19.25434265 26.51512995 22.9543163 28.15234375 27.09765625 C28.15234375 27.75765625 28.15234375 28.41765625 28.15234375 29.09765625 C25.02630376 29.58801546 22.25658173 29.7903805 19.15234375 29.09765625 C16.83589251 26.73156677 15.56498616 24.06477264 14.15234375 21.09765625 C12.44341876 17.7830492 12.44341876 17.7830492 9.02734375 17.41015625 C8.07859375 17.30703125 7.12984375 17.20390625 6.15234375 17.09765625 C6.15234375 21.05765625 6.15234375 25.01765625 6.15234375 29.09765625 C0 29.1953125 0 29.1953125 -1.84765625 29.09765625 C-3.65044816 27.29486434 -2.9780223 24.55717924 -2.98046875 22.12890625 C-2.98175781 20.91847656 -2.98304688 19.70804687 -2.984375 18.4609375 C-2.98050781 17.18605469 -2.97664062 15.91117187 -2.97265625 14.59765625 C-2.97652344 13.32277344 -2.98039063 12.04789062 -2.984375 10.734375 C-2.98308594 9.52394531 -2.98179687 8.31351562 -2.98046875 7.06640625 C-2.97934082 5.94685547 -2.97821289 4.82730469 -2.97705078 3.67382812 C-2.7999569 0.14798927 -2.7999569 0.14798927 0 0 Z " fill="#504614" transform="translate(217.84765625,316.90234375)"/>
<path d="M0 0 C2.64 0 5.28 0 8 0 C8 3.63 8 7.26 8 11 C11.96 11 15.92 11 20 11 C19.979375 9.370625 19.95875 7.74125 19.9375 6.0625 C19.91613932 4.37500659 19.92794489 2.68608966 20 1 C20.33 0.67 20.66 0.34 21 0 C23.64 0 26.28 0 29 0 C29 9.57 29 19.14 29 29 C26.36 29 23.72 29 21 29 C20 28 20 28 19.90234375 25.71484375 C19.93489583 23.14322917 19.96744792 20.57161458 20 18 C16.04 18 12.08 18 8 18 C8 21.63 8 25.26 8 29 C5.36 29 2.72 29 0 29 C0 19.43 0 9.86 0 0 Z " fill="#4E4512" transform="translate(282,317)"/>
<path d="M0 0 C0.99 0.33 1.98 0.66 3 1 C4.04321289 3.11376953 4.04321289 3.11376953 4.97265625 5.8828125 C5.31490234 6.88570312 5.65714844 7.88859375 6.00976562 8.921875 C6.35716797 9.97890625 6.70457031 11.0359375 7.0625 12.125 C7.41376953 13.15882813 7.76503906 14.19265625 8.12695312 15.2578125 C9.10772797 18.16491071 10.06036369 21.07938058 11 24 C11.23960449 24.72541992 11.47920898 25.45083984 11.72607422 26.19824219 C12.7325468 29.40579352 13.09410957 30.71767129 12 34 C9.525 34.495 9.525 34.495 7 35 C6.67 35.99 6.34 36.98 6 38 C5.01 38.495 5.01 38.495 4 39 C3.67 39.66 3.34 40.32 3 41 C-0.11257569 41 -2.10765685 40.82638376 -5 40 C-4.61181632 30.12174683 -4.16591025 20.26562477 -3.0625 10.4375 C-2.98789551 9.73052979 -2.91329102 9.02355957 -2.83642578 8.29516602 C-2.41872137 4.81984823 -1.98152039 2.97228059 0 0 Z " fill="#4E42D7" transform="translate(214,169)"/>
<path d="M0 0 C2.86335775 3.17290994 4.2586439 5.76436243 4.4375 10 C4.13621779 15.26239586 2.36392385 18.76914189 -1.5625 22.3125 C-5.54904062 25.07241274 -7.9477077 25.18887172 -12.8125 25.25 C-14.64748047 25.28867187 -14.64748047 25.28867187 -16.51953125 25.328125 C-20.93794515 24.91157419 -23.28926553 23.28305085 -26.75 20.6875 C-28.53582522 18.27663596 -28.67391585 15.93475732 -29 13 C-26 11 -26 11 -23.0625 11 C-20 12 -20 12 -18 15.0625 C-17.34 16.031875 -16.68 17.00125 -16 18 C-12.95691709 18.75015195 -12.95691709 18.75015195 -10 18 C-7.85889658 16.38283718 -7.09357016 15.50637968 -6.6015625 12.84375 C-6.60929687 12.0703125 -6.61703125 11.296875 -6.625 10.5 C-6.61726563 9.7265625 -6.60953125 8.953125 -6.6015625 8.15625 C-7.08712042 5.52852481 -8.06458445 4.76133055 -10 3 C-10 2.34 -10 1.68 -10 1 C-6.28172338 -0.80602007 -3.91238229 -1.60507991 0 0 Z " fill="#504614" transform="translate(278,357)"/>
<path d="M0 0 C6.27 0 12.54 0 19 0 C19 2.31 19 4.62 19 7 C17.35 7 15.7 7 14 7 C14 11.95 14 16.9 14 22 C15.65 22 17.3 22 19 22 C19 24.31 19 26.62 19 29 C12.73 29 6.46 29 0 29 C0 26.69 0 24.38 0 22 C1.65 22 3.3 22 5 22 C5 17.05 5 12.1 5 7 C3.35 7 1.7 7 0 7 C0 4.69 0 2.38 0 0 Z " fill="#4F4513" transform="translate(316,317)"/>
<path d="M0 0 C1.21042969 -0.00128906 2.42085938 -0.00257813 3.66796875 -0.00390625 C4.94285156 -0.00003906 6.21773438 0.00382812 7.53125 0.0078125 C9.44357422 0.00201172 9.44357422 0.00201172 11.39453125 -0.00390625 C13.21017578 -0.00197266 13.21017578 -0.00197266 15.0625 0 C16.18205078 0.00112793 17.30160156 0.00225586 18.45507812 0.00341797 C21.03125 0.1328125 21.03125 0.1328125 22.03125 1.1328125 C22.07205783 3.13239614 22.07379356 5.13326504 22.03125 7.1328125 C18.73125 7.1328125 15.43125 7.1328125 12.03125 7.1328125 C12.03125 14.3928125 12.03125 21.6528125 12.03125 29.1328125 C9.39125 29.1328125 6.75125 29.1328125 4.03125 29.1328125 C3.03125 28.1328125 3.03125 28.1328125 2.91772461 26.09155273 C2.92296143 25.21700439 2.92819824 24.34245605 2.93359375 23.44140625 C2.93681641 22.49716797 2.94003906 21.55292969 2.94335938 20.58007812 C2.95173828 19.58685547 2.96011719 18.59363281 2.96875 17.5703125 C2.97326172 16.57322266 2.97777344 15.57613281 2.98242188 14.54882812 C2.99424977 12.07679763 3.01218585 9.60479778 3.03125 7.1328125 C-0.26875 7.1328125 -3.56875 7.1328125 -6.96875 7.1328125 C-7.01129356 5.13326504 -7.00955783 3.13239614 -6.96875 1.1328125 C-5.16595809 -0.66997941 -2.42827299 0.00244645 0 0 Z " fill="#524918" transform="translate(343.96875,316.8671875)"/>
<path d="M0 0 C6.6 0 13.2 0 20 0 C20 1.98 20 3.96 20 6 C18.02 6 16.04 6 14 6 C14 10.95 14 15.9 14 21 C15.65 21 17.3 21 19 21 C20 22 20 22 20.125 24.5 C20 27 20 27 19 28 C17.66956375 28.0983721 16.33406656 28.13078592 15 28.1328125 C14.195625 28.13410156 13.39125 28.13539063 12.5625 28.13671875 C11.716875 28.13285156 10.87125 28.12898438 10 28.125 C9.154375 28.12886719 8.30875 28.13273437 7.4375 28.13671875 C6.633125 28.13542969 5.82875 28.13414062 5 28.1328125 C4.2575 28.13168457 3.515 28.13055664 2.75 28.12939453 C1 28 1 28 0 27 C-0.04080783 25.00041636 -0.04254356 22.99954746 0 21 C1.65 21 3.3 21 5 21 C5 16.38 5 11.76 5 7 C3.35 6.67 1.7 6.34 0 6 C0 4.02 0 2.04 0 0 Z " fill="#574D1D" transform="translate(321,354)"/>
<path d="M0 0 C1.41470963 4.74859901 1.25172496 9.2171744 0 14 C-1.79190586 16.64101158 -3.10227653 17.35977917 -6 19 C-6.94488281 18.98195312 -7.88976562 18.96390625 -8.86328125 18.9453125 C-12.53649619 19.00935361 -14.34513956 19.91873044 -17.5 21.75 C-18.92119141 22.56791016 -18.92119141 22.56791016 -20.37109375 23.40234375 C-23.31218576 25.18972359 -26.17073946 27.04128117 -29 29 C-29.66 29.33 -30.32 29.66 -31 30 C-30.34 24.39 -29.68 18.78 -29 13 C-27.35 12.34 -25.7 11.68 -24 11 C-23.01 12.32 -22.02 13.64 -21 15 C-20.34 13.35 -19.68 11.7 -19 10 C-16.03 10.495 -16.03 10.495 -13 11 C-12.67 9.35 -12.34 7.7 -12 6 C-10.0625 5.4375 -10.0625 5.4375 -8 5 C-7.67 5.33 -7.34 5.66 -7 6 C-6.34 4.68 -5.68 3.36 -5 2 C-3.35 2 -1.7 2 0 2 C0 1.34 0 0.68 0 0 Z " fill="#C163C8" transform="translate(265,237)"/>
<path d="M0 0 C1.83498047 -0.03867187 1.83498047 -0.03867187 3.70703125 -0.078125 C8.39625609 0.3639568 10.90703183 1.96953183 14.1875 5.25 C14.1875 6.57 14.1875 7.89 14.1875 9.25 C8.1328125 9.4453125 8.1328125 9.4453125 6.1875 9.25 C5.5275 8.59 4.8675 7.93 4.1875 7.25 C0.60406024 7.08322718 0.60406024 7.08322718 -2.8125 7.25 C-3.1425 8.24 -3.4725 9.23 -3.8125 10.25 C-1.5025 10.91 0.8075 11.57 3.1875 12.25 C2.1975 13.735 2.1975 13.735 1.1875 15.25 C0.218125 15.064375 -0.75125 14.87875 -1.75 14.6875 C-2.760625 14.543125 -3.77125 14.39875 -4.8125 14.25 C-5.1425 14.58 -5.4725 14.91 -5.8125 15.25 C-8.25 15.5 -8.25 15.5 -10.8125 15.25 C-13.29288907 11.5294164 -13.27587203 9.65203429 -12.8125 5.25 C-8.96789532 0.3801674 -6.0237609 0.07569124 0 0 Z " fill="#4D4310" transform="translate(229.8125,352.75)"/>
<path d="M0 0 C0.33 0 0.66 0 1 0 C1.18066555 6.60607502 0.47812684 12.90035021 -0.4375 19.4375 C-0.70784049 21.41525414 -0.97738261 23.39311758 -1.24609375 25.37109375 C-1.37483887 26.31452637 -1.50358398 27.25795898 -1.63623047 28.22998047 C-2.15070968 32.14761883 -2.58150564 36.07102867 -3 40 C-5.32269896 37.67730104 -5.87126384 35.96859511 -6.9453125 32.87890625 C-7.29980469 31.86119141 -7.65429688 30.84347656 -8.01953125 29.79492188 C-8.38433594 28.72822266 -8.74914062 27.66152344 -9.125 26.5625 C-9.49753906 25.49966797 -9.87007812 24.43683594 -10.25390625 23.34179688 C-13 15.39019574 -13 15.39019574 -13 12 C-12 11 -11 10 -10 9 C-10 8.01 -10 7.02 -10 6 C-3.125 6.875 -3.125 6.875 -2 8 C-1.34 5.36 -0.68 2.72 0 0 Z " fill="#5637EB" transform="translate(235,250)"/>
<path d="M0 0 C2.375 1.4375 2.375 1.4375 4 4 C4.7842297 8.3612774 4.77513557 11.77767083 2.375 15.5625 C-0.74900668 17.45334615 -2.40988607 17.67314636 -6 17 C-8.50806657 14.88794394 -9.75114713 13.28235407 -10.3828125 10.02734375 C-10.57518135 6.59676591 -10.25127542 4.38657757 -8.375 1.5 C-5.27859404 -0.45562482 -3.60146865 -0.60024477 0 0 Z " fill="#F8F7F6" transform="translate(268,359)"/>
<path d="M0 0 C3.47921735 -0.02683201 6.95823039 -0.0467567 10.4375 -0.0625 C11.92733398 -0.07506836 11.92733398 -0.07506836 13.44726562 -0.08789062 C14.39150391 -0.09111328 15.33574219 -0.09433594 16.30859375 -0.09765625 C17.62041626 -0.10551147 17.62041626 -0.10551147 18.95874023 -0.11352539 C21 0 21 0 22 1 C22.16796875 2.99609375 22.16796875 2.99609375 22.1875 5.4375 C22.20167969 6.24058594 22.21585937 7.04367187 22.23046875 7.87109375 C22 10 22 10 20 12 C17.4375 11.75 17.4375 11.75 15 11 C13.5216774 8.04335481 13.93967217 5.25770263 14 2 C11.92064793 2.4100567 11.92064793 2.4100567 10 4 C9.31209578 6.69658452 9.18053536 9.2017019 9 12 C8.34 12 7.68 12 7 12 C6.67 11.34 6.34 10.68 6 10 C4.68 10 3.36 10 2 10 C2 10.66 2 11.32 2 12 C1.34 12 0.68 12 0 12 C0 8.04 0 4.08 0 0 Z " fill="#736B44" transform="translate(412,417)"/>
<path d="M0 0 C0.66 0 1.32 0 2 0 C2 0.66 2 1.32 2 2 C2.66 2 3.32 2 4 2 C4 4.97 4 7.94 4 11 C3.01 10.01 2.02 9.02 1 8 C1 9.32 1 10.64 1 12 C-1.484375 13.95703125 -1.484375 13.95703125 -4.75 15.8125 C-5.81734375 16.43769531 -6.8846875 17.06289063 -7.984375 17.70703125 C-11 19 -11 19 -13.27734375 18.8515625 C-15.93740793 17.53661014 -16.78151737 15.62935726 -18 13 C-17.67 12.34 -17.34 11.68 -17 11 C-15.33871537 10.64080332 -13.67099977 10.31088368 -12 10 C-11.29875 9.649375 -10.5975 9.29875 -9.875 8.9375 C-8 8 -8 8 -5 8 C-5 7.34 -5 6.68 -5 6 C-4.360625 5.7525 -3.72125 5.505 -3.0625 5.25 C-0.81258459 4.18437567 -0.81258459 4.18437567 -0.25 1.875 C-0.1675 1.25625 -0.085 0.6375 0 0 Z " fill="#928ED6" transform="translate(320,256)"/>
<path d="M0 0 C2.05078125 0.03255208 4.1015625 0.06510417 6.15234375 0.09765625 C6.17919054 2.74355639 6.19910732 5.38918721 6.21484375 8.03515625 C6.22322266 8.78990234 6.23160156 9.54464844 6.24023438 10.32226562 C6.24886816 12.24759938 6.20458708 14.17301206 6.15234375 16.09765625 C5.15234375 17.09765625 5.15234375 17.09765625 2.83984375 17.41015625 C0.15234375 17.09765625 0.15234375 17.09765625 -1.47265625 15.16015625 C-5.30571343 11.8314487 -9.92428281 12.26742775 -14.84765625 12.09765625 C-14.84765625 11.76765625 -14.84765625 11.43765625 -14.84765625 11.09765625 C-10.88765625 11.09765625 -6.92765625 11.09765625 -2.84765625 11.09765625 C-2.86828125 9.46828125 -2.88890625 7.83890625 -2.91015625 6.16015625 C-2.93151693 4.47266284 -2.91971136 2.78374591 -2.84765625 1.09765625 C-1.84765625 0.09765625 -1.84765625 0.09765625 0 0 Z " fill="#544B1A" transform="translate(304.84765625,316.90234375)"/>
<path d="M0 0 C0.33 0 0.66 0 1 0 C1 1.65 1 3.3 1 5 C1.804375 5 2.60875 5 3.4375 5 C4.625 5 5.8125 5 7 5 C7.33 3.68 7.66 2.36 8 1 C9.65 0.67 11.3 0.34 13 0 C12.67 5.61 12.34 11.22 12 17 C11.01 16.67 10.02 16.34 9 16 C8.67 15.01 8.34 14.02 8 13 C7.01 14.32 6.02 15.64 5 17 C3.35 16.67 1.7 16.34 0 16 C0 10.72 0 5.44 0 0 Z " fill="#6D653D" transform="translate(245,412)"/>
<path d="M0 0 C0.66 0 1.32 0 2 0 C2 0.99 2 1.98 2 3 C3.94603274 3.59070014 3.94603274 3.59070014 6 4 C6.33 3.67 6.66 3.34 7 3 C9.5 2.875 9.5 2.875 12 3 C13.58894072 4.58894072 13.16998411 6.24801424 13.1875 8.4375 C13.20167969 9.24058594 13.21585938 10.04367187 13.23046875 10.87109375 C13 13 13 13 11 15 C8.73725212 14.64644564 7.04911148 14.02455574 5 13 C5 13.66 5 14.32 5 15 C1.125 14.125 1.125 14.125 0 13 C-0.26087055 11.3826026 -0.45964436 9.75493414 -0.625 8.125 C-0.72039062 7.24070312 -0.81578125 6.35640625 -0.9140625 5.4453125 C-1 3 -1 3 0 0 Z " fill="#B2AE98" transform="translate(193,414)"/>
<path d="M0 0 C6.27 0 12.54 0 19 0 C19 2.31 19 4.62 19 7 C18.67 5.68 18.34 4.36 18 3 C16.9275 3.66 15.855 4.32 14.75 5 C11.69019314 6.88295807 10.8664136 7 7 7 C6.67 11.95 6.34 16.9 6 22 C5.67 22 5.34 22 5 22 C5 17.05 5 12.1 5 7 C3.35 7 1.7 7 0 7 C0 4.69 0 2.38 0 0 Z " fill="#635A2D" transform="translate(316,317)"/>
<path d="M0 0 C0.66 0 1.32 0 2 0 C2 0.66 2 1.32 2 2 C3.134375 1.814375 4.26875 1.62875 5.4375 1.4375 C7.2009375 1.2209375 7.2009375 1.2209375 9 1 C10 2 10 2 10.09765625 4.28515625 C10.08605469 5.20167969 10.07445312 6.11820312 10.0625 7.0625 C10.05347656 7.98160156 10.04445313 8.90070313 10.03515625 9.84765625 C10.02355469 10.55792969 10.01195312 11.26820313 10 12 C7.69 12 5.38 12 3 12 C2.34 10.68 1.68 9.36 1 8 C0.34 8 -0.32 8 -1 8 C-1.33 9.65 -1.66 11.3 -2 13 C-4.42130331 10.57869669 -4.52840504 9.19888623 -5.125 5.875 C-5.29257812 4.96492188 -5.46015625 4.05484375 -5.6328125 3.1171875 C-5.75398438 2.41851562 -5.87515625 1.71984375 -6 1 C-4 3 -4 3 -2 6 C-1.34 4.02 -0.68 2.04 0 0 Z " fill="#E6E4DD" transform="translate(313,416)"/>
<path d="M0 0 C2.31 0 4.62 0 7 0 C7.33 1.32 7.66 2.64 8 4 C8.66 4 9.32 4 10 4 C10.33 2.68 10.66 1.36 11 0 C12.65 0 14.3 0 16 0 C16 0.99 16 1.98 16 3 C14.68 2.67 13.36 2.34 12 2 C14.71604715 4.87420123 14.71604715 4.87420123 18 7 C18 7.99 18 8.98 18 10 C15 12 15 12 12.9375 11.75 C11 11 11 11 9 9 C8.67 9.99 8.34 10.98 8 12 C7.34 12 6.68 12 6 12 C6 8.37 6 4.74 6 1 C5.01 1.33 4.02 1.66 3 2 C2.67 5.3 2.34 8.6 2 12 C1.34 12 0.68 12 0 12 C0 8.04 0 4.08 0 0 Z " fill="#B0AC96" transform="translate(346,417)"/>
<path d="M0 0 C1.10336858 3.31010574 1.13531135 5.6813976 0 9 C-2.0625 10.3125 -2.0625 10.3125 -4 11 C-4 12.32 -4 13.64 -4 15 C-5.65 15.33 -7.3 15.66 -9 16 C-9.33 15.34 -9.66 14.68 -10 14 C-12.01669827 12.86649466 -12.01669827 12.86649466 -14 12 C-13.25 9.0625 -13.25 9.0625 -12 6 C-9.9375 5.0625 -9.9375 5.0625 -8 5 C-7.67 5.33 -7.34 5.66 -7 6 C-6.34 4.68 -5.68 3.36 -5 2 C-3.35 2 -1.7 2 0 2 C0 1.34 0 0.68 0 0 Z " fill="#AE68C5" transform="translate(265,237)"/>
<path d="M0 0 C0.66 0 1.32 0 2 0 C2 0.99 2 1.98 2 3 C3.98 3 5.96 3 8 3 C8 6.96 8 10.92 8 15 C5 16 5 16 2.89453125 15.3671875 C0.3424913 13.52550919 0.2099431 12.18697089 -0.3125 9.125 C-0.47363281 8.26132812 -0.63476562 7.39765625 -0.80078125 6.5078125 C-0.99682591 4.03995616 -0.75591323 2.33843662 0 0 Z " fill="#CDCBBE" transform="translate(326,414)"/>
<path d="M0 0 C0.33 0 0.66 0 1 0 C1.02886338 4.47915328 1.04675187 8.95828291 1.0625 13.4375 C1.07087891 14.71689453 1.07925781 15.99628906 1.08789062 17.31445312 C1.09111328 18.52939453 1.09433594 19.74433594 1.09765625 20.99609375 C1.10289307 22.12200928 1.10812988 23.2479248 1.11352539 24.40795898 C1 27 1 27 0 28 C-3.04951226 28.42523079 -5.9601888 28.51485091 -9 28 C-11.0625 25.5 -11.0625 25.5 -12 23 C-11.2265625 22.87625 -11.2265625 22.87625 -10.4375 22.75 C-6.89265258 21.65927772 -3.71807225 20.55767702 -1 18 C0.01137664 14.92147546 -0.01974284 11.96936251 -0.0625 8.75 C-0.04638672 7.90953125 -0.03027344 7.0690625 -0.01367188 6.203125 C0.02156812 4.13571196 0.01489055 2.06765974 0 0 Z " fill="#5A5123" transform="translate(316,354)"/>
<path d="M0 0 C0.33 0 0.66 0 1 0 C1.1799928 5.21979128 0.97094808 9.07262981 -1 14 C-3.76264289 14.59732819 -6.16032769 15 -9 15 C-9 15.99 -9 16.98 -9 18 C-9.99 18 -10.98 18 -12 18 C-12.6875 15.1875 -12.6875 15.1875 -13 12 C-11.5625 10.3125 -11.5625 10.3125 -10 9 C-10 8.01 -10 7.02 -10 6 C-3.125 6.875 -3.125 6.875 -2 8 C-1.34 5.36 -0.68 2.72 0 0 Z " fill="#4F3DCD" transform="translate(235,250)"/>
<path d="M0 0 C2.4375 0.375 2.4375 0.375 5 1 C5.33 1.66 5.66 2.32 6 3 C6.66 2.01 7.32 1.02 8 0 C10.625 -0.1875 10.625 -0.1875 13 0 C13 0.99 13 1.98 13 3 C11.68 2.34 10.36 1.68 9 1 C9.66868314 4.11332248 9.66868314 4.11332248 12.0625 5.1875 C12.701875 5.455625 13.34125 5.72375 14 6 C14 7.65 14 9.3 14 11 C11.625 11.625 11.625 11.625 9 12 C8.34 11.34 7.68 10.68 7 10 C6.67 10.66 6.34 11.32 6 12 C5.34 12 4.68 12 4 12 C3.96261719 11.30132812 3.92523438 10.60265625 3.88671875 9.8828125 C3.82097656 8.97273438 3.75523437 8.06265625 3.6875 7.125 C3.62949219 6.22007812 3.57148438 5.31515625 3.51171875 4.3828125 C3.2117961 1.63778399 3.2117961 1.63778399 0 0 Z " fill="#A29D82" transform="translate(171,417)"/>
<path d="M0 0 C1.4540625 0.0309375 1.4540625 0.0309375 2.9375 0.0625 C2.96435412 2.37493792 2.98382841 4.6874627 3 7 C3.01160156 8.28777344 3.02320313 9.57554687 3.03515625 10.90234375 C2.9375 14.0625 2.9375 14.0625 1.9375 15.0625 C0.27132885 15.10313832 -1.39638095 15.105221 -3.0625 15.0625 C-3.0625 14.0725 -3.0625 13.0825 -3.0625 12.0625 C-1.0825 12.5575 -1.0825 12.5575 0.9375 13.0625 C0.9375 12.4025 0.9375 11.7425 0.9375 11.0625 C-0.7125 10.7325 -2.3625 10.4025 -4.0625 10.0625 C-4.08939216 8.58343108 -4.10884621 7.10422517 -4.125 5.625 C-4.13660156 4.80128906 -4.14820313 3.97757812 -4.16015625 3.12890625 C-4.00103255 -0.23815127 -3.43619093 0.07012635 0 0 Z " fill="#6A6238" transform="translate(263.0625,416.9375)"/>
<path d="M0 0 C1.99954746 -0.04254356 4.00041636 -0.04080783 6 0 C7.58894072 1.58894072 7.16998411 3.24801424 7.1875 5.4375 C7.20167969 6.24058594 7.21585937 7.04367187 7.23046875 7.87109375 C7 10 7 10 5 12 C2.4375 11.75 2.4375 11.75 0 11 C-1.49297212 8.01405576 -1.11755228 5.29146376 -1 2 C-0.67 1.34 -0.34 0.68 0 0 Z " fill="#888261" transform="translate(337,417)"/>
<path d="M0 0 C1.99954746 -0.04254356 4.00041636 -0.04080783 6 0 C7.58894072 1.58894072 7.16998411 3.24801424 7.1875 5.4375 C7.20167969 6.24058594 7.21585937 7.04367187 7.23046875 7.87109375 C7 10 7 10 5 12 C2.4375 11.75 2.4375 11.75 0 11 C-1.49297212 8.01405576 -1.11755228 5.29146376 -1 2 C-0.67 1.34 -0.34 0.68 0 0 Z " fill="#857F5C" transform="translate(403,417)"/>
<path d="M0 0 C2.64 0 5.28 0 8 0 C8.33 3.96 8.66 7.92 9 12 C8.34 12 7.68 12 7 12 C6.67 11.34 6.34 10.68 6 10 C4.68 10 3.36 10 2 10 C2 10.66 2 11.32 2 12 C1.34 12 0.68 12 0 12 C0 8.04 0 4.08 0 0 Z " fill="#F1F1ED" transform="translate(412,417)"/>
<path d="M0 0 C0.33 0 0.66 0 1 0 C1 5.28 1 10.56 1 16 C-0.65 16.33 -2.3 16.66 -4 17 C-6 15 -6 15 -6.23046875 12.87109375 C-6.21628906 12.06800781 -6.20210937 11.26492188 -6.1875 10.4375 C-6.18105469 9.63183594 -6.17460937 8.82617188 -6.16796875 7.99609375 C-6 6 -6 6 -5 5 C-3.33382885 4.95936168 -1.66611905 4.957279 0 5 C0 3.35 0 1.7 0 0 Z " fill="#696136" transform="translate(215,412)"/>
<path d="M0 0 C0.33 0 0.66 0 1 0 C1 1.65 1 3.3 1 5 C1.804375 4.979375 2.60875 4.95875 3.4375 4.9375 C6 5 6 5 7 6 C7.16796875 7.99609375 7.16796875 7.99609375 7.1875 10.4375 C7.20167969 11.24058594 7.21585938 12.04367187 7.23046875 12.87109375 C7 15 7 15 5 17 C3.35 16.67 1.7 16.34 0 16 C0 10.72 0 5.44 0 0 Z " fill="#686036" transform="translate(139,412)"/>
<path d="M0 0 C1.4540625 0.0309375 1.4540625 0.0309375 2.9375 0.0625 C4.43047212 3.04844424 4.05505228 5.77103624 3.9375 9.0625 C3.6075 9.7225 3.2775 10.3825 2.9375 11.0625 C0.93795254 11.10504356 -1.06291636 11.10330783 -3.0625 11.0625 C-4.0625 10.0625 -4.0625 10.0625 -4.1953125 8.03125 C-4.19273437 7.2165625 -4.19015625 6.401875 -4.1875 5.5625 C-4.19007813 4.7478125 -4.19265625 3.933125 -4.1953125 3.09375 C-3.9772303 -0.2416248 -3.415854 0.06971131 0 0 Z " fill="#847D5A" transform="translate(302.0625,416.9375)"/>
<path d="M0 0 C0 1.32 0 2.64 0 4 C-2.9375 6.1875 -2.9375 6.1875 -6 8 C-6.33 8.33 -6.66 8.66 -7 9 C-8.66617115 9.04063832 -10.33388095 9.042721 -12 9 C-12.66 7.68 -13.32 6.36 -14 5 C-12.35 3.68 -10.7 2.36 -9 1 C-8.67 1.33 -8.34 1.66 -8 2 C-7.67 1.34 -7.34 0.68 -7 0 C-3.86650268 -1.04449911 -3.01031744 -0.93423645 0 0 Z " fill="#4B4110" transform="translate(266,354)"/>
<path d="M0 0 C2.14576637 -0.02685938 4.29162645 -0.04633088 6.4375 -0.0625 C7.63246094 -0.07410156 8.82742187 -0.08570313 10.05859375 -0.09765625 C13 0 13 0 14 1 C14.07226502 2.85287502 14.0838122 4.70833878 14.0625 6.5625 C14.05347656 7.57441406 14.04445313 8.58632813 14.03515625 9.62890625 C14.02355469 10.41136719 14.01195313 11.19382812 14 12 C13.34 12 12.68 12 12 12 C11.67 8.7 11.34 5.4 11 2 C10.34 2 9.68 2 9 2 C8.67 5.3 8.34 8.6 8 12 C7.34 12 6.68 12 6 12 C6 8.37 6 4.74 6 1 C5.01 1.33 4.02 1.66 3 2 C2.67 5.3 2.34 8.6 2 12 C1.34 12 0.68 12 0 12 C0 8.04 0 4.08 0 0 Z " fill="#8A8362" transform="translate(72,417)"/>
<path d="M0 0 C1.98 0 3.96 0 6 0 C7 1 7 1 7.1328125 3.03125 C7.13023438 3.8459375 7.12765625 4.660625 7.125 5.5 C7.12757812 6.3146875 7.13015625 7.129375 7.1328125 7.96875 C7 10 7 10 6 11 C4.33382885 11.04063832 2.66611905 11.042721 1 11 C0.67 12.32 0.34 13.64 0 15 C0 10.05 0 5.1 0 0 Z " fill="#ACA790" transform="translate(112,417)"/>
<path d="M0 0 C3.375 -0.125 3.375 -0.125 7 0 C7.66 0.66 8.32 1.32 9 2 C11.65537372 2.56520003 14.29144713 2.73788198 17 3 C17 4.98 17 6.96 17 9 C16.45472656 8.80664062 15.90945312 8.61328125 15.34765625 8.4140625 C9.9561948 6.55239547 4.59078274 5.12344334 -1 4 C-0.67 2.68 -0.34 1.36 0 0 Z " fill="#EAE9E4" transform="translate(227,359)"/>
<path d="M0 0 C2.5 0.125 2.5 0.125 3.5 1.125 C3.66796875 3.12109375 3.66796875 3.12109375 3.6875 5.5625 C3.70167969 6.36558594 3.71585937 7.16867187 3.73046875 7.99609375 C3.5 10.125 3.5 10.125 1.5 12.125 C-2.03571429 11.58928571 -2.03571429 11.58928571 -3.5 10.125 C-3.5979057 8.62761876 -3.62974864 7.12557108 -3.625 5.625 C-3.62757813 4.8103125 -3.63015625 3.995625 -3.6328125 3.15625 C-3.43435342 0.12099356 -3.05615366 0.15280768 0 0 Z " fill="#B7B39F" transform="translate(380.5,416.875)"/>
<path d="M0 0 C2.5 0.125 2.5 0.125 3.5 1.125 C3.66796875 3.12109375 3.66796875 3.12109375 3.6875 5.5625 C3.70167969 6.36558594 3.71585938 7.16867187 3.73046875 7.99609375 C3.5 10.125 3.5 10.125 1.5 12.125 C-2.03571429 11.58928571 -2.03571429 11.58928571 -3.5 10.125 C-3.5979057 8.62761876 -3.62974864 7.12557108 -3.625 5.625 C-3.62757813 4.8103125 -3.63015625 3.995625 -3.6328125 3.15625 C-3.43435342 0.12099356 -3.05615366 0.15280768 0 0 Z " fill="#B6B29E" transform="translate(132.5,416.875)"/>
<path d="M0 0 C3.63 0 7.26 0 11 0 C9.25 2 9.25 2 7 4 C5.68 4 4.36 4 3 4 C2.0699111 6.7902667 1.81301231 8.76529542 1.68359375 11.66796875 C1.64169922 12.56064453 1.59980469 13.45332031 1.55664062 14.37304688 C1.51732422 15.30181641 1.47800781 16.23058594 1.4375 17.1875 C1.39431641 18.12787109 1.35113281 19.06824219 1.30664062 20.03710938 C1.20061335 22.35792854 1.09854971 24.67885325 1 27 C3.31 27 5.62 27 8 27 C8 27.33 8 27.66 8 28 C5.36 28 2.72 28 0 28 C0 18.76 0 9.52 0 0 Z " fill="#554C1B" transform="translate(170,354)"/>
<path d="M0 0 C2.05078125 0.03255208 4.1015625 0.06510417 6.15234375 0.09765625 C6.27734375 2.47265625 6.27734375 2.47265625 6.15234375 5.09765625 C5.49234375 5.75765625 4.83234375 6.41765625 4.15234375 7.09765625 C4.47086145 9.20586422 4.47086145 9.20586422 5.15234375 11.09765625 C3.83234375 10.76765625 2.51234375 10.43765625 1.15234375 10.09765625 C1.48234375 9.10765625 1.81234375 8.11765625 2.15234375 7.09765625 C0.83234375 6.76765625 -0.48765625 6.43765625 -1.84765625 6.09765625 C-1.84765625 7.74765625 -1.84765625 9.39765625 -1.84765625 11.09765625 C-2.17765625 11.09765625 -2.50765625 11.09765625 -2.84765625 11.09765625 C-2.87453776 9.45191059 -2.89399748 7.80604212 -2.91015625 6.16015625 C-2.92175781 5.24363281 -2.93335938 4.32710938 -2.9453125 3.3828125 C-2.82618856 0.59531224 -2.79215837 0.14757708 0 0 Z " fill="#5D5425" transform="translate(304.84765625,316.90234375)"/>
<path d="M0 0 C1.65 0.33 3.3 0.66 5 1 C5.33 2.65 5.66 4.3 6 6 C4.125 7.0625 4.125 7.0625 2 8 C1.34 7.67 0.68 7.34 0 7 C0 7.99 0 8.98 0 10 C-1.8125 9.875 -1.8125 9.875 -4 9 C-5.75 5.9375 -5.75 5.9375 -7 3 C-6.01 2.67 -5.02 2.34 -4 2 C-3.01 3.485 -3.01 3.485 -2 5 C-1.34 3.35 -0.68 1.7 0 0 Z " fill="#B262C2" transform="translate(246,247)"/>
<path d="M0 0 C-0.33 5.61 -0.66 11.22 -1 17 C-4 16 -4 16 -6 13 C-6.30078125 10.37109375 -6.30078125 10.37109375 -6.3125 7.4375 C-6.32925781 6.46683594 -6.34601563 5.49617188 -6.36328125 4.49609375 C-6.24339844 3.67238281 -6.12351563 2.84867187 -6 2 C-3 0 -3 0 0 0 Z " fill="#C8C6B8" transform="translate(258,412)"/>
<path d="M0 0 C0.66 0 1.32 0 2 0 C2.66 1.65 3.32 3.3 4 5 C4.33 3.35 4.66 1.7 5 0 C5.99 0.33 6.98 0.66 8 1 C8.33 1.99 8.66 2.98 9 4 C9.66 2.68 10.32 1.36 11 0 C11.66 0 12.32 0 13 0 C12.34 3.3 11.68 6.6 11 10 C10.01 10.33 9.02 10.66 8 11 C7.34 9.68 6.68 8.36 6 7 C5.67 8.32 5.34 9.64 5 11 C4.01 10.67 3.02 10.34 2 10 C1.34 6.7 0.68 3.4 0 0 Z " fill="#807956" transform="translate(435,417)"/>
<path d="M0 0 C-6.39130435 4.26086957 -6.39130435 4.26086957 -10.3125 3.625 C-10.869375 3.41875 -11.42625 3.2125 -12 3 C-11.34 3 -10.68 3 -10 3 C-10.33 1.68 -10.66 0.36 -11 -1 C-12.98 -1 -14.96 -1 -17 -1 C-17.33 -0.01 -17.66 0.98 -18 2 C-19.32 1.34 -20.64 0.68 -22 0 C-13.889855 -4.0550725 -8.110145 -4.0550725 0 0 Z " fill="#635B2F" transform="translate(276,355)"/>
<path d="M0 0 C4.29 0.99 8.58 1.98 13 3 C12.34 4.32 11.68 5.64 11 7 C7.6875 7.1875 7.6875 7.1875 4 7 C3 6 2 5 1 4 C-1.67499409 3.42220128 -4.26221739 3.22440841 -7 3 C-7 2.67 -7 2.34 -7 2 C-4.69 2 -2.38 2 0 2 C0 1.34 0 0.68 0 0 Z " fill="#F5F5F4" transform="translate(223,369)"/>
<path d="M0 0 C0.87011719 0.05800781 1.74023438 0.11601562 2.63671875 0.17578125 C3.51972656 0.22089844 4.40273438 0.26601563 5.3125 0.3125 C6.30830078 0.39951172 6.30830078 0.39951172 7.32421875 0.48828125 C7.32421875 2.13828125 7.32421875 3.78828125 7.32421875 5.48828125 C2.37421875 5.48828125 -2.57578125 5.48828125 -7.67578125 5.48828125 C-2.67578125 0.48828125 -2.67578125 0.48828125 0 0 Z " fill="#4F4513" transform="translate(333.67578125,375.51171875)"/>
<path d="M0 0 C1.45823212 -0.0270043 2.91660675 -0.04639787 4.375 -0.0625 C5.18710938 -0.07410156 5.99921875 -0.08570313 6.8359375 -0.09765625 C9 0 9 0 11 1 C10.125 4.875 10.125 4.875 9 6 C7.48071962 6.07179964 5.95832518 6.08392007 4.4375 6.0625 C3.61121094 6.05347656 2.78492188 6.04445313 1.93359375 6.03515625 C1.29550781 6.02355469 0.65742188 6.01195312 0 6 C0 4.02 0 2.04 0 0 Z " fill="#EAE9E3" transform="translate(179,360)"/>
<path d="M0 0 C1.98 0.66 3.96 1.32 6 2 C6 4 6 4 4 6.125 C3.34 6.74375 2.68 7.3625 2 8 C5.63 8 9.26 8 13 8 C13 8.33 13 8.66 13 9 C6.73 9 0.46 9 -6 9 C-4.68 8.67 -3.36 8.34 -2 8 C-2.226875 7.4225 -2.45375 6.845 -2.6875 6.25 C-3 4 -3 4 -1.5625 1.75 C-1.046875 1.1725 -0.53125 0.595 0 0 Z " fill="#EBEAE6" transform="translate(176,345)"/>
<path d="M0 0 C1.66611905 -0.042721 3.33382885 -0.04063832 5 0 C6 1 6 1 6.09765625 3.28515625 C6.08605469 4.20167969 6.07445313 5.11820312 6.0625 6.0625 C6.05347656 6.98160156 6.04445313 7.90070313 6.03515625 8.84765625 C6.02355469 9.55792969 6.01195313 10.26820313 6 11 C1.25 12.125 1.25 12.125 -1 11 C-1.042721 9.33388095 -1.04063832 7.66617115 -1 6 C0 5 0 5 2.5625 4.9375 C3.7690625 4.9684375 3.7690625 4.9684375 5 5 C4.67 4.01 4.34 3.02 4 2 C3.01 1.67 2.02 1.34 1 1 C1 1.66 1 2.32 1 3 C0.34 3 -0.32 3 -1 3 C-0.67 2.01 -0.34 1.02 0 0 Z " fill="#736B43" transform="translate(89,417)"/>
<path d="M0 0 C0.66 0 1.32 0 2 0 C2 0.66 2 1.32 2 2 C2.66 2 3.32 2 4 2 C4 4.97 4 7.94 4 11 C3.01 10.01 2.02 9.02 1 8 C1 9.32 1 10.64 1 12 C-0.875 11.8125 -0.875 11.8125 -3 11 C-4.25 8.4375 -4.25 8.4375 -5 6 C-4.360625 5.7525 -3.72125 5.505 -3.0625 5.25 C-0.81258459 4.18437567 -0.81258459 4.18437567 -0.25 1.875 C-0.1675 1.25625 -0.085 0.6375 0 0 Z " fill="#9B83D1" transform="translate(320,256)"/>
<path d="M0 0 C2.5 0.125 2.5 0.125 3.5 1.125 C3.54063832 2.79117115 3.542721 4.45888095 3.5 6.125 C1.52 6.125 -0.46 6.125 -2.5 6.125 C-2.17 7.115 -1.84 8.105 -1.5 9.125 C0.15 8.795 1.8 8.465 3.5 8.125 C3.5 9.115 3.5 10.105 3.5 11.125 C1.125 11.75 1.125 11.75 -1.5 12.125 C-3.5 10.125 -3.5 10.125 -3.73046875 7.99609375 C-3.70919922 6.79146484 -3.70919922 6.79146484 -3.6875 5.5625 C-3.68105469 4.75683594 -3.67460937 3.95117188 -3.66796875 3.12109375 C-3.41515801 0.11676148 -3.03505973 0.15175299 0 0 Z " fill="#716A42" transform="translate(156.5,416.875)"/>
<path d="M0 0 C2.05078125 0.03255208 4.1015625 0.06510417 6.15234375 0.09765625 C5.16234375 0.42765625 4.17234375 0.75765625 3.15234375 1.09765625 C2.41910579 3.11273983 2.41910579 3.11273983 2.15234375 5.09765625 C2.15234375 4.43765625 2.15234375 3.77765625 2.15234375 3.09765625 C1.49234375 3.75765625 0.83234375 4.41765625 0.15234375 5.09765625 C0.47086145 7.20586422 0.47086145 7.20586422 1.15234375 9.09765625 C0.49234375 8.76765625 -0.16765625 8.43765625 -0.84765625 8.09765625 C-1.17765625 14.69765625 -1.50765625 21.29765625 -1.84765625 28.09765625 C-2.17765625 28.09765625 -2.50765625 28.09765625 -2.84765625 28.09765625 C-2.87651963 23.61850297 -2.89440812 19.13937334 -2.91015625 14.66015625 C-2.91853516 13.38076172 -2.92691406 12.10136719 -2.93554688 10.78320312 C-2.93876953 9.56826172 -2.94199219 8.35332031 -2.9453125 7.1015625 C-2.95054932 5.97564697 -2.95578613 4.84973145 -2.96118164 3.68969727 C-2.8060772 0.14831275 -2.8060772 0.14831275 0 0 Z " fill="#716941" transform="translate(217.84765625,316.90234375)"/>
<path d="M0 0 C1.66611905 -0.042721 3.33382885 -0.04063832 5 0 C6 1 6 1 6.09765625 3.28515625 C6.08605469 4.20167969 6.07445312 5.11820312 6.0625 6.0625 C6.05347656 6.98160156 6.04445313 7.90070313 6.03515625 8.84765625 C6.02355469 9.55792969 6.01195312 10.26820313 6 11 C3.69 11 1.38 11 -1 11 C-1 9.02 -1 7.04 -1 5 C0.98 5 2.96 5 5 5 C4.67 4.01 4.34 3.02 4 2 C2.35 2.33 0.7 2.66 -1 3 C-0.67 2.01 -0.34 1.02 0 0 Z " fill="#6D653B" transform="translate(317,417)"/>
<path d="M0 0 C1.66611905 -0.042721 3.33382885 -0.04063832 5 0 C6 1 6 1 6.09765625 3.28515625 C6.08605469 4.20167969 6.07445312 5.11820312 6.0625 6.0625 C6.05347656 6.98160156 6.04445312 7.90070313 6.03515625 8.84765625 C6.02355469 9.55792969 6.01195312 10.26820313 6 11 C3.69 11 1.38 11 -1 11 C-1 9.02 -1 7.04 -1 5 C0.98 5 2.96 5 5 5 C4.67 4.01 4.34 3.02 4 2 C2.35 2.33 0.7 2.66 -1 3 C-0.67 2.01 -0.34 1.02 0 0 Z " fill="#6F673E" transform="translate(220,417)"/>
<path d="M0 0 C0.375 2.25 0.375 2.25 0 5 C-3.48556762 8.30682057 -6.19065229 9.24259977 -10.875 9.25 C-12.25105487 9.18641991 -13.62686409 9.10985087 -15 9 C-14.01 8.34 -13.02 7.68 -12 7 C-11.236875 6.360625 -10.47375 5.72125 -9.6875 5.0625 C-3.09090909 0 -3.09090909 0 0 0 Z " fill="#4C4310" transform="translate(244,373)"/>
<path d="M0 0 C2.31 0.33 4.62 0.66 7 1 C6.525625 1.433125 6.05125 1.86625 5.5625 2.3125 C3.76313043 4.02309613 3.76313043 4.02309613 3 7 C-1.82360189 7.19294408 -5.49646738 6.75747614 -10 5 C-8.375 3.4375 -8.375 3.4375 -6 2 C-2.75 2.3125 -2.75 2.3125 0 3 C0 2.01 0 1.02 0 0 Z " fill="#5C5324" transform="translate(231,364)"/>
<path d="M0 0 C3.375 -0.125 3.375 -0.125 7 0 C7.66 0.66 8.32 1.32 9 2 C11.65537372 2.56520003 14.29144713 2.73788198 17 3 C17 3.33 17 3.66 17 4 C16.2575 4.144375 15.515 4.28875 14.75 4.4375 C12.12485075 4.92445678 12.12485075 4.92445678 10.125 5.59375 C7.54411817 6.08715388 5.78885738 5.69721435 3.25 5.0625 C2.45078125 4.86785156 1.6515625 4.67320312 0.828125 4.47265625 C-0.07679688 4.23869141 -0.07679688 4.23869141 -1 4 C-0.67 2.68 -0.34 1.36 0 0 Z " fill="#EAE9E3" transform="translate(259,323)"/>
<path d="M0 0 C2.64 0 5.28 0 8 0 C8.33 0.66 8.66 1.32 9 2 C8.01 2.33 7.02 2.66 6 3 C7.39759905 6.54518884 7.39759905 6.54518884 9 10 C1.98165138 7.97247706 1.98165138 7.97247706 0 5 C-0.1875 2.3125 -0.1875 2.3125 0 0 Z " fill="#594F21" transform="translate(216,372)"/>
<path d="M0 0 C3.3 0 6.6 0 10 0 C10.33 1.32 10.66 2.64 11 4 C10 5 10 5 7.71484375 5.09765625 C6.34005859 5.08025391 6.34005859 5.08025391 4.9375 5.0625 C4.01839844 5.05347656 3.09929687 5.04445313 2.15234375 5.03515625 C1.44207031 5.02355469 0.73179687 5.01195312 0 5 C0 3.35 0 1.7 0 0 Z " fill="#F8F7F5" transform="translate(154,324)"/>
<path d="M0 0 C2.69082872 0.17635452 5.32851446 0.61835921 8 1 C8 4.63 8 8.26 8 12 C7.67 12 7.34 12 7 12 C6.67 9.69 6.34 7.38 6 5 C2.73539027 6.80412643 1.11070205 7.83394693 -1 11 C-1.33 9.02 -1.66 7.04 -2 5 C-1.34 5 -0.68 5 0 5 C-0.2784375 4.0409375 -0.2784375 4.0409375 -0.5625 3.0625 C-0.7790625 2.0415625 -0.7790625 2.0415625 -1 1 C-0.67 0.67 -0.34 0.34 0 0 Z " fill="#5C41DD" transform="translate(226,263)"/>
<path d="M0 0 C2.33294775 -0.04241723 4.66702567 -0.04092937 7 0 C8 1 8 1 8.09765625 3.50390625 C8.08605469 4.51324219 8.07445312 5.52257812 8.0625 6.5625 C8.05347656 7.57441406 8.04445313 8.58632813 8.03515625 9.62890625 C8.02355469 10.41136719 8.01195312 11.19382812 8 12 C7.34 12 6.68 12 6 12 C6 8.37 6 4.74 6 1 C5.01 1.33 4.02 1.66 3 2 C2.67 5.3 2.34 8.6 2 12 C1.34 12 0.68 12 0 12 C0 8.04 0 4.08 0 0 Z " fill="#888260" transform="translate(288,417)"/>
<path d="M0 0 C2.33294775 -0.04241723 4.66702567 -0.04092937 7 0 C8 1 8 1 8.09765625 3.50390625 C8.08605469 4.51324219 8.07445312 5.52257812 8.0625 6.5625 C8.05347656 7.57441406 8.04445313 8.58632813 8.03515625 9.62890625 C8.02355469 10.41136719 8.01195312 11.19382812 8 12 C7.34 12 6.68 12 6 12 C6 8.37 6 4.74 6 1 C5.01 1.33 4.02 1.66 3 2 C2.67 5.3 2.34 8.6 2 12 C1.34 12 0.68 12 0 12 C0 8.04 0 4.08 0 0 Z " fill="#888260" transform="translate(278,417)"/>
<path d="M0 0 C2.33294775 -0.04241723 4.66702567 -0.04092937 7 0 C8 1 8 1 8.09765625 3.50390625 C8.08605469 4.51324219 8.07445312 5.52257812 8.0625 6.5625 C8.05347656 7.57441406 8.04445313 8.58632813 8.03515625 9.62890625 C8.02355469 10.41136719 8.01195312 11.19382812 8 12 C7.34 12 6.68 12 6 12 C6 8.37 6 4.74 6 1 C5.01 1.33 4.02 1.66 3 2 C2.67 5.3 2.34 8.6 2 12 C1.34 12 0.68 12 0 12 C0 8.04 0 4.08 0 0 Z " fill="#8A8464" transform="translate(346,417)"/>
<path d="M0 0 C0.99 0 1.98 0 3 0 C3.33074549 3.63820044 3.48805542 5.3773086 1.1875 8.3125 C-1 10 -1 10 -4 11 C-5 10 -5 10 -5.0625 7.4375 C-5.041875 6.633125 -5.02125 5.82875 -5 5 C-4.34 5.66 -3.68 6.32 -3 7 C-3.33 5.68 -3.66 4.36 -4 3 C-3.01 2.67 -2.02 2.34 -1 2 C-0.67 1.34 -0.34 0.68 0 0 Z " fill="#493F0D" transform="translate(221,318)"/>
<path d="M0 0 C4.54805635 -0.17835515 7.8794254 0.00214565 12 2 C11.67 2.99 11.34 3.98 11 5 C9.54207116 5.05399736 8.08357288 5.09279177 6.625 5.125 C5.81289063 5.14820313 5.00078125 5.17140625 4.1640625 5.1953125 C2 5 2 5 0 3 C0 2.01 0 1.02 0 0 Z " fill="#F3F3F0" transform="translate(256,334)"/>
<path d="M0 0 C1.10844919 3.32534757 0.84454356 5.62182575 0 9 C-1.98 9.33 -3.96 9.66 -6 10 C-7.2077558 6.37673261 -6.54311128 5.35853631 -5 2 C-3.35 2 -1.7 2 0 2 C0 1.34 0 0.68 0 0 Z " fill="#A773CA" transform="translate(265,237)"/>
<path d="M0 0 C5.484375 -0.365625 5.484375 -0.365625 7.71875 1.21875 C9.43533674 3.60522425 9.14346129 4.82737916 8.6875 7.6875 C8.50767578 8.89986328 8.50767578 8.89986328 8.32421875 10.13671875 C8.21722656 10.75160156 8.11023438 11.36648438 8 12 C7.67 12 7.34 12 7 12 C6.67 9.03 6.34 6.06 6 3 C5.01 2.67 4.02 2.34 3 2 C2.67 5.3 2.34 8.6 2 12 C1.34 11.67 0.68 11.34 0 11 C-1.27368421 3.82105263 -1.27368421 3.82105263 0 0 Z " fill="#979275" transform="translate(162,416)"/>
<path d="M0 0 C1.2065625 0.0309375 1.2065625 0.0309375 2.4375 0.0625 C2.7675 1.3825 3.0975 2.7025 3.4375 4.0625 C2.7775 3.7325 2.1175 3.4025 1.4375 3.0625 C1.4375 2.4025 1.4375 1.7425 1.4375 1.0625 C0.4475 1.3925 -0.5425 1.7225 -1.5625 2.0625 C-1.35873822 3.96834196 -1.35873822 3.96834196 -0.5625 6.0625 C0.4584375 6.7740625 0.4584375 6.7740625 1.5 7.5 C3.4375 9.0625 3.4375 9.0625 3.8125 11.625 C3.4375 14.0625 3.4375 14.0625 1.4375 16.0625 C-1.1875 15.6875 -1.1875 15.6875 -3.5625 15.0625 C-3.8925 13.7425 -4.2225 12.4225 -4.5625 11.0625 C-3.0775 12.0525 -3.0775 12.0525 -1.5625 13.0625 C-0.5725 13.0625 0.4175 13.0625 1.4375 13.0625 C1.08870368 9.80706771 0.41616739 9.04376893 -2.125 6.8125 C-2.929375 6.235 -3.73375 5.6575 -4.5625 5.0625 C-3.43829114 0.08386076 -3.43829114 0.08386076 0 0 Z " fill="#746D47" transform="translate(66.5625,412.9375)"/>
<path d="M0 0 C0.33 0 0.66 0 1 0 C1 2.64 1 5.28 1 8 C1.5775 7.649375 2.155 7.29875 2.75 6.9375 C5.35801776 5.85082593 6.39417629 6.06934867 9 7 C9 7.99 9 8.98 9 10 C7.02 10 5.04 10 3 10 C3 11.65 3 13.3 3 15 C1.02 15.99 1.02 15.99 -1 17 C-0.67 11.39 -0.34 5.78 0 0 Z " fill="#D7D4C9" transform="translate(216,412)"/>
<path d="M0 0 C0.99 0 1.98 0 3 0 C3.33 0.66 3.66 1.32 4 2 C4.66 1.67 5.32 1.34 6 1 C6.84098656 5.01804691 7.05404945 8.01803543 6 12 C5.773125 11.4225 5.54625 10.845 5.3125 10.25 C3.66961977 7.4336339 1.60466773 5.91922886 -1 4 C-0.67 2.68 -0.34 1.36 0 0 Z " fill="#E9E9E5" transform="translate(65,414)"/>
<path d="M0 0 C1.32 0 2.64 0 4 0 C4.33 1.98 4.66 3.96 5 6 C3.02 6.99 3.02 6.99 1 8 C0.01 7.34 -0.98 6.68 -2 6 C-1.125 1.125 -1.125 1.125 0 0 Z " fill="#4A410F" transform="translate(236,366)"/>
<path d="M0 0 C0.66 0 1.32 0 2 0 C2.125 3.375 2.125 3.375 2 7 C1.34 7.66 0.68 8.32 0 9 C-2.125 8.625 -2.125 8.625 -4 8 C-4 7.34 -4 6.68 -4 6 C-4.66 6 -5.32 6 -6 6 C-6 4.35 -6 2.7 -6 1 C-4.68 1.33 -3.36 1.66 -2 2 C-2 2.99 -2 3.98 -2 5 C-1.01 5.33 -0.02 5.66 1 6 C0.34 4.35 -0.32 2.7 -1 1 C-0.67 0.67 -0.34 0.34 0 0 Z " fill="#473D0B" transform="translate(309,322)"/>
<path d="M0 0 C2.0625 0.4375 2.0625 0.4375 4 1 C4 3.31 4 5.62 4 8 C2.0625 8.5625 2.0625 8.5625 0 9 C-1 8 -1 8 -1.125 4.5 C-1 1 -1 1 0 0 Z " fill="#EDECE9" transform="translate(141,418)"/>
<path d="M0 0 C2.0625 0.4375 2.0625 0.4375 4 1 C4 3.31 4 5.62 4 8 C2.0625 8.5625 2.0625 8.5625 0 9 C-1 8 -1 8 -1.125 4.5 C-1 1 -1 1 0 0 Z " fill="#F0EFED" transform="translate(429,418)"/>
<path d="M0 0 C2.0625 0.4375 2.0625 0.4375 4 1 C4 3.31 4 5.62 4 8 C2.0625 8.5625 2.0625 8.5625 0 9 C-1 8 -1 8 -1.125 4.5 C-1 1 -1 1 0 0 Z " fill="#EBEAE6" transform="translate(247,418)"/>
<path d="M0 0 C2.0625 0.4375 2.0625 0.4375 4 1 C4 3.31 4 5.62 4 8 C2.0625 8.5625 2.0625 8.5625 0 9 C-1 8 -1 8 -1.125 4.5 C-1 1 -1 1 0 0 Z " fill="#F3F3F0" transform="translate(211,418)"/>
<path d="M0 0 C2.0625 0.4375 2.0625 0.4375 4 1 C4 3.31 4 5.62 4 8 C2.0625 8.5625 2.0625 8.5625 0 9 C-1 8 -1 8 -1.125 4.5 C-1 1 -1 1 0 0 Z " fill="#F5F4F2" transform="translate(201,418)"/>
<path d="M0 0 C2.1875 0.3125 2.1875 0.3125 4 1 C4 2.65 4 4.3 4 6 C2.02 6.99 2.02 6.99 0 8 C-0.99 6.35 -1.98 4.7 -3 3 C-1.75 1.4375 -1.75 1.4375 0 0 Z " fill="#483E0C" transform="translate(331,366)"/>
<path d="M0 0 C2.0625 0.4375 2.0625 0.4375 4 1 C4 3.31 4 5.62 4 8 C2.35 8 0.7 8 -1 8 C-1.04241723 5.66705225 -1.04092937 3.33297433 -1 1 C-0.67 0.67 -0.34 0.34 0 0 Z " fill="#F1F0EC" transform="translate(261,418)"/>
<path d="M0 0 C1.9375 0.8125 1.9375 0.8125 4 2 C4.33 2.99 4.66 3.98 5 5 C3.75 6.5625 3.75 6.5625 2 8 C-0.1875 7.6875 -0.1875 7.6875 -2 7 C-1.34 4.69 -0.68 2.38 0 0 Z " fill="#B959BE" transform="translate(237,253)"/>
<path d="M0 0 C0.99 0 1.98 0 3 0 C3 2.97 3 5.94 3 9 C1.68 9 0.36 9 -1 9 C-1.09765625 2.84765625 -1.09765625 2.84765625 -1 1 C-0.67 0.67 -0.34 0.34 0 0 Z " fill="#FAF9F8" transform="translate(405,418)"/>
<path d="M0 0 C0.99 0 1.98 0 3 0 C3 2.97 3 5.94 3 9 C1.68 9 0.36 9 -1 9 C-1.09765625 2.84765625 -1.09765625 2.84765625 -1 1 C-0.67 0.67 -0.34 0.34 0 0 Z " fill="#F3F3F1" transform="translate(339,418)"/>
<path d="M0 0 C1.32 0.33 2.64 0.66 4 1 C4 3.64 4 6.28 4 9 C2.68 9 1.36 9 0 9 C0 6.03 0 3.06 0 0 Z " fill="#F9F9F7" transform="translate(300,418)"/>
<path d="M0 0 C0.66 0 1.32 0 2 0 C2 0.99 2 1.98 2 3 C2.66 3.33 3.32 3.66 4 4 C3.34 4 2.68 4 2 4 C2 6.97 2 9.94 2 13 C2.66 13 3.32 13 4 13 C4 13.66 4 14.32 4 15 C2.05078125 14.30859375 2.05078125 14.30859375 0 13 C-0.64453125 10.72265625 -0.64453125 10.72265625 -0.8125 8.0625 C-0.88082031 7.18722656 -0.94914063 6.31195313 -1.01953125 5.41015625 C-1 3 -1 3 0 0 Z " fill="#837C58" transform="translate(193,414)"/>
<path d="M0 0 C2.89932357 2.39509338 3.50168276 4.31245243 4 8 C1.69 8 -0.62 8 -3 8 C-1.125 2.25 -1.125 2.25 0 0 Z " fill="#E1DFD7" transform="translate(194,326)"/>
<path d="M0 0 C2 2 2 2 4 5 C4.66 3.35 5.32 1.7 6 0 C7.12377697 3.30435084 6.89554742 5.0506862 5.5625 8.25 C5.27503906 8.95640625 4.98757813 9.6628125 4.69140625 10.390625 C4.46324219 10.92171875 4.23507812 11.4528125 4 12 C1.57869669 9.57869669 1.47159496 8.19888623 0.875 4.875 C0.70742188 3.96492188 0.53984375 3.05484375 0.3671875 2.1171875 C0.24601562 1.41851562 0.12484375 0.71984375 0 0 Z " fill="#78714B" transform="translate(307,417)"/>
<path d="M0 0 C0.33 0.99 0.66 1.98 1 3 C2.65 3 4.3 3 6 3 C6 3.33 6 3.66 6 4 C5.39671875 4.19335938 4.7934375 4.38671875 4.171875 4.5859375 C3.37265625 4.84632813 2.5734375 5.10671875 1.75 5.375 C0.96109375 5.63023437 0.1721875 5.88546875 -0.640625 6.1484375 C-2.86627958 6.95173667 -4.90931672 7.89711662 -7 9 C-7 7.35 -7 5.7 -7 4 C-6.030625 3.71125 -5.06125 3.4225 -4.0625 3.125 C-0.89335797 2.35785318 -0.89335797 2.35785318 0 0 Z " fill="#5B5223" transform="translate(223,324)"/>
<path d="M0 0 C0.66 0 1.32 0 2 0 C2 0.66 2 1.32 2 2 C3.98 1.34 5.96 0.68 8 0 C6.68 2.31 5.36 4.62 4 7 C3.01 6.67 2.02 6.34 1 6 C-0.1875 3.4375 -0.1875 3.4375 -1 1 C-0.67 0.67 -0.34 0.34 0 0 Z " fill="#3F45B2" transform="translate(268,235)"/>
<path d="M0 0 C1.99954746 -0.04254356 4.00041636 -0.04080783 6 0 C7 1 7 1 7.09765625 2.84765625 C7.06510417 4.8984375 7.03255208 6.94921875 7 9 C6.67 9 6.34 9 6 9 C6 6.69 6 4.38 6 2 C3.93597032 2.48705712 3.93597032 2.48705712 2 4 C1.18129815 7.56206661 1.18129815 7.56206661 1 11 C0.67 11 0.34 11 0 11 C0 7.37 0 3.74 0 0 Z " fill="#9C977C" transform="translate(420,417)"/>
<path d="M0 0 C0.66 0 1.32 0 2 0 C2 0.99 2 1.98 2 3 C2.66 3.33 3.32 3.66 4 4 C3.34 4 2.68 4 2 4 C2 6.97 2 9.94 2 13 C2.66 13.33 3.32 13.66 4 14 C3.01 14 2.02 14 1 14 C0.63495397 12.41913952 0.28339494 10.83516093 -0.0625 9.25 C-0.25972656 8.36828125 -0.45695312 7.4865625 -0.66015625 6.578125 C-0.99825872 4.01320972 -0.81158635 2.42908361 0 0 Z " fill="#837C58" transform="translate(326,414)"/>
<path d="M0 0 C1.65 0.33 3.3 0.66 5 1 C5.33 2.32 5.66 3.64 6 5 C4.1875 5.6875 4.1875 5.6875 2 6 C0.25 4.5625 0.25 4.5625 -1 3 C-0.67 2.01 -0.34 1.02 0 0 Z " fill="#F4F3F1" transform="translate(63,421)"/>
<path d="M0 0 C1.98 0 3.96 0 6 0 C5.01 0.66 4.02 1.32 3 2 C2.41810734 4.42521494 2.41810734 4.42521494 2.3125 7.125 C2.24675781 8.03507812 2.18101562 8.94515625 2.11328125 9.8828125 C2.07589844 10.58148438 2.03851563 11.28015625 2 12 C1.34 12 0.68 12 0 12 C0 8.04 0 4.08 0 0 Z " fill="#87805E" transform="translate(412,417)"/>
<path d="M0 0 C0.33 0 0.66 0 1 0 C1 2.64 1 5.28 1 8 C-1.62113708 8 -3.50935112 7.68707555 -6 7 C-6 6.01 -6 5.02 -6 4 C-4.02 4 -2.04 4 0 4 C0 2.68 0 1.36 0 0 Z " fill="#DAD8CE" transform="translate(160,419)"/>
<path d="M0 0 C0 1.32 0 2.64 0 4 C-2.64 4 -5.28 4 -8 4 C-8.33 3.34 -8.66 2.68 -9 2 C-5.86501708 0.14223235 -3.62528568 -0.20140476 0 0 Z " fill="#524817" transform="translate(244,358)"/>
<path d="M0 0 C2.64 0 5.28 0 8 0 C8 1.98 8 3.96 8 6 C6.02 5.34 4.04 4.68 2 4 C2.33 3.34 2.66 2.68 3 2 C2.01 1.34 1.02 0.68 0 0 Z " fill="#D3D1C7" transform="translate(236,362)"/>
<path d="M0 0 C1.65 0 3.3 0 5 0 C4.67 0.99 4.34 1.98 4 3 C4.33 3.99 4.66 4.98 5 6 C3.35 6 1.7 6 0 6 C0 4.02 0 2.04 0 0 Z " fill="#493F0E" transform="translate(316,318)"/>
<path d="M0 0 C0.33 0.99 0.66 1.98 1 3 C1.99 3.33 2.98 3.66 4 4 C3.01 4 2.02 4 1 4 C1.185625 5.9490625 1.185625 5.9490625 1.375 7.9375 C1.44460938 8.66839844 1.51421875 9.39929688 1.5859375 10.15234375 C1.72257812 10.76207031 1.85921875 11.37179687 2 12 C2.66 12.33 3.32 12.66 4 13 C4 13.66 4 14.32 4 15 C2.68 14.34 1.36 13.68 0 13 C0 10.03 0 7.06 0 4 C-0.66 3.67 -1.32 3.34 -2 3 C-1.34 3 -0.68 3 0 3 C0 2.01 0 1.02 0 0 Z " fill="#6E663D" transform="translate(371,414)"/>
<path d="M0 0 C2.97 0 5.94 0 9 0 C9.66 2.31 10.32 4.62 11 7 C10.34 7 9.68 7 9 7 C8.67 7.66 8.34 8.32 8 9 C8 6.36 8 3.72 8 1 C5.36 1 2.72 1 0 1 C0 0.67 0 0.34 0 0 Z " fill="#7789F8" transform="translate(205,162)"/>
<path d="M0 0 C1.65 0.33 3.3 0.66 5 1 C4.34 2.32 3.68 3.64 3 5 C0.69 5 -1.62 5 -4 5 C-2.68 4.34 -1.36 3.68 0 3 C0 2.01 0 1.02 0 0 Z " fill="#DAD8D0" transform="translate(231,371)"/>
<path d="M0 0 C0.66 0 1.32 0 2 0 C2.66 1.98 3.32 3.96 4 6 C4.33 6 4.66 6 5 6 C5 7.65 5 9.3 5 11 C4.01 10.67 3.02 10.34 2 10 C1.34 6.7 0.68 3.4 0 0 Z " fill="#736B45" transform="translate(435,417)"/>
<path d="M0 0 C0.99 0 1.98 0 3 0 C3.33 2.31 3.66 4.62 4 7 C3.01 6.67 2.02 6.34 1 6 C-0.1875 3.4375 -0.1875 3.4375 -1 1 C-0.67 0.67 -0.34 0.34 0 0 Z " fill="#473D0B" transform="translate(222,374)"/>
<path d="M0 0 C1.4384798 0.06423833 2.87666999 0.14163547 4.3125 0.25 C4.3125 0.58 4.3125 0.91 4.3125 1.25 C2.70375 1.37375 2.70375 1.37375 1.0625 1.5 C-2.9613451 2.30476902 -4.16919253 3.12729874 -6.6875 6.25 C-7.0175 5.59 -7.3475 4.93 -7.6875 4.25 C-5.84004374 0.30875998 -4.09551026 -0.02575793 0 0 Z " fill="#7C754F" transform="translate(240.6875,316.75)"/>
<path d="M0 0 C2.97 0.495 2.97 0.495 6 1 C5.34 2.32 4.68 3.64 4 5 C2.68 4.34 1.36 3.68 0 3 C0 2.01 0 1.02 0 0 Z " fill="#EFEFEA" transform="translate(180,418)"/>
<path d="M0 0 C2.33294775 -0.04241723 4.66702567 -0.04092937 7 0 C8 1 8 1 8.0625 3.5625 C8.041875 4.366875 8.02125 5.17125 8 6 C7.01 6.495 7.01 6.495 6 7 C5.67 5.35 5.34 3.7 5 2 C3.35 1.67 1.7 1.34 0 1 C0 0.67 0 0.34 0 0 Z " fill="#EAEAE7" transform="translate(338,416)"/>
<path d="M0 0 C2.31 0 4.62 0 7 0 C5.71034824 1.37562854 4.37310707 2.70766393 3 4 C2.34 4 1.68 4 1 4 C0.67 2.68 0.34 1.36 0 0 Z " fill="#483E0C" transform="translate(322,318)"/>
<path d="M0 0 C1.32 0 2.64 0 4 0 C3.67 1.32 3.34 2.64 3 4 C1.68 4 0.36 4 -1 4 C-0.67 2.68 -0.34 1.36 0 0 Z " fill="#EDECE8" transform="translate(318,423)"/>
<path d="M0 0 C1.32 0 2.64 0 4 0 C3.67 1.32 3.34 2.64 3 4 C1.68 4 0.36 4 -1 4 C-0.67 2.68 -0.34 1.36 0 0 Z " fill="#EEEDE9" transform="translate(221,423)"/>
<path d="M0 0 C1.98 0.495 1.98 0.495 4 1 C4 1.99 4 2.98 4 4 C2.35 4 0.7 4 -1 4 C-0.67 2.68 -0.34 1.36 0 0 Z " fill="#ECEBE7" transform="translate(155,418)"/>
<path d="M0 0 C1.32 0.33 2.64 0.66 4 1 C4 1.99 4 2.98 4 4 C2.35 4 0.7 4 -1 4 C-1.33 3.34 -1.66 2.68 -2 2 C-1.34 2 -0.68 2 0 2 C0 1.34 0 0.68 0 0 Z " fill="#E8E7E0" transform="translate(90,418)"/>
<path d="M0 0 C0.99 0.2165625 0.99 0.2165625 2 0.4375 C5.65599551 1.12299916 9.30622195 1.56175515 13 2 C13 2.33 13 2.66 13 3 C11.39667209 3.08121924 9.79215974 3.13929134 8.1875 3.1875 C7.29417969 3.22230469 6.40085938 3.25710938 5.48046875 3.29296875 C2.58352485 2.95081002 1.77444972 2.24606427 0 0 Z " fill="#F93EB5" transform="translate(179,288)"/>
<path d="M0 0 C1.485 0.99 1.485 0.99 3 2 C5.62531524 2.16713569 5.62531524 2.16713569 8 2 C7.01 3.485 7.01 3.485 6 5 C4.35 4.67 2.7 4.34 1 4 C0.67 2.68 0.34 1.36 0 0 Z " fill="#8A8362" transform="translate(62,424)"/>
<path d="M0 0 C1.32 0 2.64 0 4 0 C3.67 1.32 3.34 2.64 3 4 C1.68 3.67 0.36 3.34 -1 3 C-0.67 2.01 -0.34 1.02 0 0 Z " fill="#F4F3F0" transform="translate(90,423)"/>
<path d="M0 0 C0.66 0.33 1.32 0.66 2 1 C1.67 2.32 1.34 3.64 1 5 C-0.65 5.33 -2.3 5.66 -4 6 C-4 5.34 -4 4.68 -4 4 C-3.01 3.67 -2.02 3.34 -1 3 C-0.67 2.01 -0.34 1.02 0 0 Z " fill="#483E0C" transform="translate(327,372)"/>
<path d="M0 0 C1.32 0.66 2.64 1.32 4 2 C3.67 2.66 3.34 3.32 3 4 C-0.3 3.67 -3.6 3.34 -7 3 C-7 2.67 -7 2.34 -7 2 C-4.69 2 -2.38 2 0 2 C0 1.34 0 0.68 0 0 Z " fill="#EFEFEB" transform="translate(223,369)"/>
<path d="M0 0 C0.66 0.33 1.32 0.66 2 1 C1.67 2.32 1.34 3.64 1 5 C-0.32 5.33 -1.64 5.66 -3 6 C-2.625 3.5625 -2.625 3.5625 -2 1 C-1.34 0.67 -0.68 0.34 0 0 Z " fill="#B66DCB" transform="translate(239,248)"/>
</svg>
